<svg width="24" height="22" viewBox="0 0 24 22" fill="none" xmlns="http://www.w3.org/2000/svg">
<path d="M5.9498 21.7293C7.91634 8.33148 18.4604 0.639749 23.8745 0.547865C23.9298 0.546928 23.9721 0.595009 23.9718 0.650236C23.9362 7.05524 20.5774 7.36506 18.8107 7.52803C18.4024 7.56569 18.0792 7.5955 17.9016 7.69086C16.7051 7.97239 15.8781 8.78802 15.5262 9.20408C15.3676 9.39164 16.7391 9.61224 19.1457 9.40158C19.2335 9.39389 19.287 9.49607 19.2307 9.56395C17.238 11.9689 15.0191 12.4542 13.6282 12.7584C13.1759 12.8573 12.8111 12.9371 12.5702 13.0575C10.9172 14.6768 8.12366 18.4071 6.13345 21.7962C6.07798 21.8907 5.93389 21.8376 5.9498 21.7293Z" fill="white"/>
<path d="M5 1.30338C5.41421 1.30338 5.75 1.63917 5.75 2.05338V5.55338H9.25C9.66421 5.55338 10 5.88917 10 6.30338C10 6.71759 9.66421 7.05338 9.25 7.05338H5.75V10.5534C5.75 10.9676 5.41421 11.3034 5 11.3034C4.58579 11.3034 4.25 10.9676 4.25 10.5534V7.05338H0.75C0.335786 7.05338 0 6.71759 0 6.30338C0 5.88917 0.335786 5.55338 0.75 5.55338H4.25V2.05338C4.25 1.63917 4.58579 1.30338 5 1.30338Z" fill="white"/>
</svg>
