<svg width="23" height="23" viewBox="0 0 23 23" fill="none" xmlns="http://www.w3.org/2000/svg">
<path d="M4.25 1.57153C4.25 1.15732 3.91421 0.821533 3.5 0.821533C3.08579 0.821533 2.75 1.15732 2.75 1.57153V3.57153L0.75 3.57153C0.335786 3.57153 0 3.90732 0 4.32153C0 4.73575 0.335786 5.07153 0.75 5.07153H2.75V7.07153C2.75 7.48575 3.08579 7.82153 3.5 7.82153C3.91421 7.82153 4.25 7.48575 4.25 7.07153V5.07153L6.25 5.07153C6.66421 5.07153 7 4.73575 7 4.32153C7 3.90732 6.66421 3.57153 6.25 3.57153H4.25V1.57153Z" fill="black"/>
<path fill-rule="evenodd" clip-rule="evenodd" d="M12.981 1.53215C13.2027 0.759694 14.2973 0.759694 14.519 1.53215L16.4244 8.17244L22.0949 10.0626C22.8242 10.3057 22.8242 11.3374 22.0949 11.5805L16.4244 13.4706L14.519 20.1109C14.2973 20.8834 13.2027 20.8834 12.981 20.1109L11.0756 13.4706L5.40513 11.5805C4.67577 11.3374 4.67577 10.3057 5.40513 10.0626L11.0756 8.17244L12.981 1.53215ZM13.75 4.29065L12.4157 8.94059C12.3429 9.1941 12.1499 9.39547 11.8997 9.47887L7.87171 10.8215L11.8997 12.1642C12.1499 12.2476 12.3429 12.449 12.4157 12.7025L13.75 17.3524L15.0843 12.7025C15.1571 12.449 15.3501 12.2476 15.6003 12.1642L19.6283 10.8215L15.6003 9.47887C15.3501 9.39547 15.1571 9.1941 15.0843 8.94059L13.75 4.29065Z" fill="black"/>
<path d="M6.75 17.0715C7.16421 17.0715 7.5 17.4073 7.5 17.8215V19.0715H8.75C9.16421 19.0715 9.5 19.4073 9.5 19.8215C9.5 20.2357 9.16421 20.5715 8.75 20.5715H7.5V21.8215C7.5 22.2357 7.16421 22.5715 6.75 22.5715C6.33579 22.5715 6 22.2357 6 21.8215V20.5715H4.75C4.33579 20.5715 4 20.2357 4 19.8215C4 19.4073 4.33579 19.0715 4.75 19.0715H6V17.8215C6 17.4073 6.33579 17.0715 6.75 17.0715Z" fill="black"/>
</svg>
