<svg width="16" height="21" viewBox="0 0 16 21" fill="none" xmlns="http://www.w3.org/2000/svg">
<path fill-rule="evenodd" clip-rule="evenodd" d="M15.1111 20.1965C14.8225 20.1965 14.5415 20.0921 14.3097 19.8987L8.13332 14.7465C8.05431 14.6799 7.94567 14.6799 7.86666 14.7465L1.69034 19.8987C1.4585 20.0921 1.17752 20.1965 0.888889 20.1965C0.444444 20.1965 0 19.6965 0 19.22V2.19653C0 1.09196 0.795938 0.196533 1.77778 0.196533H14.2222C15.2041 0.196533 16 1.09196 16 2.19653V19.1965C16 19.6965 15.5556 20.1965 15.1111 20.1965ZM14.2222 1.69653H1.77778C1.53232 1.69653 1.33333 1.92039 1.33333 2.19653V18.384L7.06666 13.5465C7.61974 13.0799 8.38024 13.0799 8.93332 13.5465L14.6667 18.384V2.19653C14.6667 1.92039 14.4677 1.69653 14.2222 1.69653Z" fill="#141619"/>
</svg>
