<svg width="27" height="27" viewBox="0 0 27 27" fill="none" xmlns="http://www.w3.org/2000/svg">
<path fill-rule="evenodd" clip-rule="evenodd" d="M19.75 14.6965C19.75 18.1483 16.9518 20.9465 13.5 20.9465C10.0482 20.9465 7.25 18.1483 7.25 14.6965C7.25 11.2448 10.0482 8.44653 13.5 8.44653C16.9518 8.44653 19.75 11.2448 19.75 14.6965ZM18.25 14.6965C18.25 17.3199 16.1234 19.4465 13.5 19.4465C10.8766 19.4465 8.75 17.3199 8.75 14.6965C8.75 12.0732 10.8766 9.94653 13.5 9.94653C16.1234 9.94653 18.25 12.0732 18.25 14.6965Z" fill="#4C9EEB"/>
<path fill-rule="evenodd" clip-rule="evenodd" d="M13.25 0.196533C16.4304 0.196533 19.2328 1.8151 20.8784 4.27346H24.4615C25.5873 4.27346 26.5 5.18611 26.5 6.31192V24.6581C26.5 25.7839 25.5873 26.6965 24.4615 26.6965H2.03846C0.912651 26.6965 0 25.7839 0 24.6581V6.31192C0 5.18611 0.912651 4.27346 2.03846 4.27346H5.62162C7.26719 1.8151 10.0696 0.196533 13.25 0.196533ZM6.42258 5.77346L6.86813 5.10784C8.24714 3.04771 10.5911 1.69653 13.25 1.69653C15.9089 1.69653 18.2529 3.04771 19.6319 5.10784L20.0774 5.77346H24.4615C24.7589 5.77346 25 6.01453 25 6.31192V24.6581C25 24.9555 24.7589 25.1965 24.4615 25.1965H2.03846C1.74108 25.1965 1.5 24.9555 1.5 24.6581V6.31192C1.5 6.01453 1.74108 5.77346 2.03846 5.77346H6.42258Z" fill="#4C9EEB"/>
</svg>
