<svg width="21" height="21" viewBox="0 0 21 21" fill="none" xmlns="http://www.w3.org/2000/svg">
<path d="M1.5 1.44653L4 1.44653L4.5 3.44653M4.5 3.44653L6.5 11.4465M4.5 3.44653H19.5L17.5 11.4465H6.5M6.5 11.4465H6C5.17157 11.4465 4.5 12.1181 4.5 12.9465C4.5 13.775 5.17157 14.4465 6 14.4465H17.5M17.5 18.4465C17.5 18.9988 17.0523 19.4465 16.5 19.4465C15.9477 19.4465 15.5 18.9988 15.5 18.4465C15.5 17.8942 15.9477 17.4465 16.5 17.4465C17.0523 17.4465 17.5 17.8942 17.5 18.4465ZM7.5 18.4465C7.5 18.9988 7.05228 19.4465 6.5 19.4465C5.94772 19.4465 5.5 18.9988 5.5 18.4465C5.5 17.8942 5.94772 17.4465 6.5 17.4465C7.05228 17.4465 7.5 17.8942 7.5 18.4465Z" stroke="#141619" stroke-width="1.5" stroke-linecap="round"/>
</svg>
