<svg width="13" height="14" viewBox="0 0 13 14" fill="none" xmlns="http://www.w3.org/2000/svg">
<circle cx="6.5" cy="7.19653" r="6.5" fill="#ACB7C1"/>
<path d="M8.88735 5.35311C9.03755 5.20291 9.03755 4.95939 8.88735 4.80918C8.73715 4.65898 8.49362 4.65898 8.34342 4.80918L6.5 6.6526L4.65658 4.80918C4.50638 4.65898 4.26285 4.65898 4.11265 4.80918C3.96245 4.95939 3.96245 5.20291 4.11265 5.35311L5.95607 7.19653L4.11265 9.03995C3.96245 9.19015 3.96245 9.43368 4.11265 9.58388C4.26285 9.73408 4.50638 9.73408 4.65658 9.58388L6.5 7.74046L8.34342 9.58388C8.49362 9.73408 8.73715 9.73408 8.88735 9.58388C9.03755 9.43368 9.03755 9.19016 8.88735 9.03995L7.04393 7.19653L8.88735 5.35311Z" fill="white"/>
</svg>
