<svg width="29" height="30" viewBox="0 0 29 30" fill="none" xmlns="http://www.w3.org/2000/svg">
<path d="M14.453 27.7715L14.4514 27.7715C12.5349 27.773 10.6437 27.3544 8.91882 26.5479C7.42328 25.8487 6.08695 24.8739 4.98233 23.6817C6.39433 21.7968 9.16988 19.4927 14.4522 19.4927C19.7341 19.4927 22.5112 21.798 23.9221 23.6816C22.8175 24.8738 21.4811 25.8487 19.9855 26.5479C18.2606 27.3544 16.3694 27.773 14.453 27.7715Z" stroke="black" stroke-width="2"/>
<path d="M17.6378 14.2093C16.8056 15.0415 15.6769 15.509 14.5 15.509C13.3231 15.509 12.1944 15.0415 11.3622 14.2093C10.53 13.3771 10.0625 12.2484 10.0625 11.0715C10.0625 9.89464 10.53 8.76594 11.3622 7.93375C12.1944 7.10155 13.3231 6.63403 14.5 6.63403C15.6769 6.63403 16.8056 7.10155 17.6378 7.93375C18.47 8.76594 18.9375 9.89463 18.9375 11.0715C18.9375 12.2484 18.47 13.3771 17.6378 14.2093Z" stroke="black" stroke-width="2"/>
<path fill-rule="evenodd" clip-rule="evenodd" d="M14.5 2.00903C11.1351 2.00903 7.90795 3.34575 5.52858 5.72512C3.14921 8.10448 1.8125 11.3316 1.8125 14.6965C1.8125 18.0615 3.14921 21.2886 5.52858 23.6679C7.90795 26.0473 11.1351 27.384 14.5 27.384C17.8649 27.384 21.092 26.0473 23.4714 23.6679C25.8508 21.2886 27.1875 18.0615 27.1875 14.6965C27.1875 11.3316 25.8508 8.10448 23.4714 5.72512C21.092 3.34575 17.8649 2.00903 14.5 2.00903ZM0 14.6965C0 10.8509 1.52767 7.16276 4.24695 4.44349C6.96623 1.72421 10.6544 0.196533 14.5 0.196533C18.3456 0.196533 22.0338 1.72421 24.753 4.44349C27.4723 7.16276 29 10.8509 29 14.6965C29 18.5422 27.4723 22.2303 24.753 24.9496C22.0338 27.6689 18.3456 29.1965 14.5 29.1965C10.6544 29.1965 6.96623 27.6689 4.24695 24.9496C1.52767 22.2303 0 18.5422 0 14.6965Z" fill="black"/>
</svg>
