<svg width="24" height="25" viewBox="0 0 24 25" fill="none" xmlns="http://www.w3.org/2000/svg">
<path d="M12 22.1965C17.5228 22.1965 22 17.7194 22 12.1965C22 6.67369 17.5228 2.19653 12 2.19653C6.47715 2.19653 2 6.67369 2 12.1965C2 17.7194 6.47715 22.1965 12 22.1965Z" stroke="#141619" stroke-width="1.5" stroke-linecap="round" stroke-linejoin="round"/>
<path d="M9.08984 9.19661C9.32495 8.52828 9.789 7.96472 10.3998 7.60575C11.0106 7.24677 11.7287 7.11555 12.427 7.23533C13.1253 7.3551 13.7587 7.71814 14.2149 8.26014C14.6712 8.80215 14.9209 9.48814 14.9198 10.1966C14.9198 12.1966 11.9198 13.1966 11.9198 13.1966" stroke="#141619" stroke-width="1.5" stroke-linecap="round" stroke-linejoin="round"/>
<path d="M12 17.1965H12.01" stroke="#141619" stroke-width="2" stroke-linecap="round" stroke-linejoin="round"/>
</svg>
