<svg width="25" height="25" viewBox="0 0 25 25" fill="none" xmlns="http://www.w3.org/2000/svg">
<g clip-path="url(#clip0_1030_3041)">
<path d="M22.2396 11.255L13.0496 20.445C11.9238 21.5708 10.3968 22.2033 8.80461 22.2033C7.21242 22.2033 5.68545 21.5708 4.55961 20.445C3.43376 19.3192 2.80127 17.7922 2.80127 16.2C2.80127 14.6078 3.43376 13.0808 4.55961 11.955L13.7496 2.765C14.5002 2.01444 15.5182 1.59277 16.5796 1.59277C17.6411 1.59277 18.659 2.01444 19.4096 2.765C20.1602 3.51556 20.5818 4.53354 20.5818 5.595C20.5818 6.65645 20.1602 7.67444 19.4096 8.425L10.2096 17.615C9.83432 17.9903 9.32533 18.2011 8.79461 18.2011C8.26388 18.2011 7.75489 17.9903 7.37961 17.615C7.00432 17.2397 6.79349 16.7307 6.79349 16.2C6.79349 15.6693 7.00432 15.1603 7.37961 14.785L15.8696 6.305" stroke="#536471" stroke-width="1.5" stroke-linecap="round" stroke-linejoin="round"/>
</g>
<defs>
<clipPath id="clip0_1030_3041">
<rect width="24" height="24" fill="white" transform="translate(0.799805 0.205078)"/>
</clipPath>
</defs>
</svg>
