<svg width="16" height="15" viewBox="0 0 16 15" fill="none" xmlns="http://www.w3.org/2000/svg">
<path fill-rule="evenodd" clip-rule="evenodd" d="M7.1416 10.6924C7.41774 10.6924 7.6416 10.9162 7.6416 11.1924V13.1503C10.3903 11.5447 12.0441 10.409 13.0415 9.41732C13.6203 8.84184 13.9387 8.35108 14.1236 7.88312C14.3095 7.41259 14.3916 6.88687 14.3916 6.19238C14.3916 3.7071 12.3769 1.69238 9.8916 1.69238H6.3916C3.90632 1.69238 1.8916 3.7071 1.8916 6.19238C1.8916 8.67766 3.90632 10.6924 6.3916 10.6924H7.1416ZM7.6416 14.5952C14.3057 10.7601 15.6416 9.18929 15.6416 6.19238C15.6416 3.01675 13.0672 0.442383 9.8916 0.442383H6.3916C3.21596 0.442383 0.641602 3.01675 0.641602 6.19238C0.641602 9.36802 3.21596 11.9424 6.3916 11.9424V14.451C6.3916 14.8335 6.80356 15.0742 7.1359 14.8848C7.30778 14.7869 7.47633 14.6904 7.6416 14.5952Z" fill="#000000"/>
</svg>
