<svg width="21" height="19" viewBox="0 0 21 19" fill="none" xmlns="http://www.w3.org/2000/svg">
<path d="M8.39673 11.6487C8.88094 11.1755 9.12305 10.5267 9.12305 9.70215V8.93018H6.55811V9.97607H7.65381L7.64966 10.0757C7.63029 10.38 7.50993 10.6249 7.28857 10.8103C7.06722 10.9957 6.78361 11.0884 6.43774 11.0884C6.00057 11.0884 5.65194 10.9182 5.39185 10.5779C5.13452 10.2348 5.00586 9.76855 5.00586 9.1792C5.00586 8.59538 5.12484 8.13883 5.36279 7.80957C5.60352 7.48031 5.93693 7.31567 6.36304 7.31567C6.66187 7.31567 6.91642 7.39176 7.12671 7.54395C7.33976 7.69336 7.48364 7.8995 7.55835 8.16235H9.06079C8.98608 7.52873 8.69971 7.01823 8.20166 6.63086C7.70638 6.24072 7.09351 6.04565 6.36304 6.04565C5.46379 6.04565 4.75407 6.32788 4.23389 6.89233C3.7137 7.45402 3.45361 8.22184 3.45361 9.1958C3.45361 10.1808 3.71509 10.9542 4.23804 11.5159C4.76099 12.0776 5.48315 12.3584 6.40454 12.3584C7.25122 12.3584 7.91528 12.1218 8.39673 11.6487Z" fill="#777777"/>
<path d="M9.96025 12.1965H11.4834V6.20752H9.96025V12.1965Z" fill="#777777"/>
<path d="M12.5987 12.1965H14.1219V9.96362H16.4378V8.79736H14.1219V7.43188H16.6744V6.20752H12.5987V12.1965Z" fill="#777777"/>
<path fill-rule="evenodd" clip-rule="evenodd" d="M0.0302734 2.19653C0.0302734 1.09196 0.925704 0.196533 2.03027 0.196533H18.0303C19.1348 0.196533 20.0303 1.09196 20.0303 2.19653V16.1965C20.0303 17.3011 19.1348 18.1965 18.0303 18.1965H2.03027C0.925704 18.1965 0.0302734 17.3011 0.0302734 16.1965V2.19653ZM2.03027 1.69653H18.0303C18.3064 1.69653 18.5303 1.92039 18.5303 2.19653V16.1965C18.5303 16.4727 18.3064 16.6965 18.0303 16.6965H2.03027C1.75413 16.6965 1.53027 16.4727 1.53027 16.1965V2.19653C1.53027 1.92039 1.75413 1.69653 2.03027 1.69653Z" fill="#777777"/>
</svg>
