<svg width="13" height="14" viewBox="0 0 13 14" fill="none" xmlns="http://www.w3.org/2000/svg">
<path d="M12.5 6.95508C12.5 10.2688 9.81371 12.9551 6.5 12.9551C3.18629 12.9551 0.5 10.2688 0.5 6.95505C0.5 3.64134 3.18629 0.955051 6.5 0.955051C9.81371 0.955051 12.5 3.64137 12.5 6.95508Z" stroke="1D9BF0"/>
<path d="M3 5.45508L1.5 4.45508L1 7.21698L2 10.8836L5.5 12.4551L9 11.9313L10.5 10.9551L11.5 9.45508L9 8.78841L9.5 6.16936L8.5 4.45508L11 3.02651L10 2.45508L8.5 1.45508H6L5.5 3.02651L4.5 3.55032L4 4.45508L7 6.16936L6 7.74079L5 10.9551L3.5 9.83603V6.95508L3 5.45508Z" fill="1D9BF0" stroke="1D9BF0" stroke-linejoin="round"/>
</svg>
