<svg width="13" height="14" viewBox="0 0 13 14" fill="none" xmlns="http://www.w3.org/2000/svg">
<path d="M12.5 7.20508C12.5 10.5188 9.81371 13.2051 6.5 13.2051C3.18629 13.2051 0.5 10.5188 0.5 7.20505C0.5 3.89134 3.18629 1.20505 6.5 1.20505C9.81371 1.20505 12.5 3.89137 12.5 7.20508Z" stroke="#1D9BF0"/>
<path d="M3 5.70508L1.5 4.70508L1 7.46698L2 11.1336L5.5 12.7051L9 12.1813L10.5 11.2051L11.5 9.70508L9 9.03841L9.5 6.41936L8.5 4.70508L11 3.27651L10 2.70508L8.5 1.70508H6L5.5 3.27651L4.5 3.80032L4 4.70508L7 6.41936L6 7.99079L5 11.2051L3.5 10.086V7.20508L3 5.70508Z" fill="#1D9BF0" stroke="#1D9BF0" stroke-linejoin="round"/>
</svg>
