<svg width="13" height="13" viewBox="0 0 13 13" fill="none" xmlns="http://www.w3.org/2000/svg">
<path fill-rule="evenodd" clip-rule="evenodd" d="M12.5 6.19653C12.5 9.51024 9.81371 12.1965 6.5 12.1965C3.18629 12.1965 0.5 9.51024 0.5 6.19653C0.5 2.88282 3.18629 0.196533 6.5 0.196533C9.81371 0.196533 12.5 2.88282 12.5 6.19653ZM5.2931 11.0499C4.59331 10.1295 4.09407 9.17317 3.80512 8.19654H1.91604C2.53101 9.60404 3.7752 10.6737 5.2931 11.0499ZM1.60003 7.19653H3.58408C3.53534 6.8648 3.51069 6.53142 3.51043 6.19693C3.51018 5.86217 3.53438 5.52852 3.5827 5.19654H1.60003C1.53444 5.51965 1.50001 5.85406 1.50001 6.19653C1.50001 6.539 1.53444 6.87342 1.60003 7.19653ZM1.91604 4.19653H3.80258C4.0905 3.22018 4.58928 2.26405 5.29025 1.34387C3.77367 1.72072 2.5306 2.7899 1.91604 4.19653ZM4.85237 4.19653H8.11435C7.78564 3.28597 7.2379 2.3774 6.45916 1.48778C5.69731 2.37803 5.16569 3.28659 4.85237 4.19653ZM9.42917 7.19651H11.4C11.4656 6.8734 11.5 6.53894 11.5 6.19649C11.5 5.85403 11.4656 5.51961 11.4 5.1965H9.40296C9.46087 5.55961 9.4899 5.92479 9.48962 6.29127C9.48938 6.59404 9.46914 6.89594 9.42917 7.19651ZM7.79466 11.0272C9.27269 10.6321 10.4809 9.57678 11.084 8.1965H9.22217C8.94956 9.16454 8.47059 10.1132 7.79466 11.0272ZM8.17666 8.1965H4.85521C5.18036 9.13811 5.73821 10.0783 6.54075 10.9982C7.32596 10.0776 7.86731 9.13747 8.17666 8.1965ZM9.16895 4.19649H11.084C10.4574 2.76234 9.17747 1.67894 7.62042 1.32252C8.34535 2.24857 8.86449 3.21198 9.16895 4.19649ZM4.59519 5.19653C4.5382 5.53066 4.51013 5.86415 4.51038 6.19614C4.51061 6.52838 4.53925 6.86213 4.59679 7.19654H8.4186C8.46581 6.89372 8.4893 6.59152 8.48955 6.29054C8.48983 5.9273 8.4562 5.56225 8.38785 5.19653H4.59519Z" fill="#4C505B"/>
</svg>
