<svg width="24" height="25" viewBox="0 0 24 25" fill="none" xmlns="http://www.w3.org/2000/svg">
<path d="M12.0005 12.1965C14.2096 12.1965 16.0005 10.4057 16.0005 8.19653C16.0005 5.98739 14.2096 4.19653 12.0005 4.19653C9.79135 4.19653 8.00049 5.98739 8.00049 8.19653C8.00049 10.4057 9.79135 12.1965 12.0005 12.1965Z" fill="#171717"/>
<path d="M18.9292 19.1999C19.0078 19.7465 18.5528 20.1965 18.0005 20.1965L6.00049 20.1965C5.4482 20.1965 4.99315 19.7465 5.07177 19.1999C5.2858 17.7118 5.9752 16.3223 7.05074 15.2468C8.3635 13.934 10.144 13.1965 12.0005 13.1965C13.857 13.1965 15.6375 13.934 16.9502 15.2468C18.0258 16.3223 18.7152 17.7118 18.9292 19.1999Z" fill="#171717"/>
<path d="M8.0102 12.4241C8.36321 12.1054 8.28006 11.5704 7.9951 11.1897C7.37051 10.3552 7.00059 9.31907 7.00059 8.19653C7.00059 7.72554 6.74822 7.25247 6.27921 7.20929C6.18751 7.20085 6.09461 7.19653 6.0007 7.19653C4.34385 7.19653 3.0007 8.53968 3.0007 10.1965C3.0007 11.8534 4.34385 13.1965 6.0007 13.1965C6.77365 13.1965 7.47832 12.9042 8.0102 12.4241Z" fill="#171717"/>
<path d="M6.34374 14.5397C6.46487 14.4185 6.39736 14.2093 6.22622 14.2016C6.15125 14.1982 6.07606 14.1965 6.0007 14.1965C4.67462 14.1965 3.40285 14.7233 2.46517 15.661C1.76517 16.361 1.29416 17.2472 1.10035 18.2032C0.99062 18.7444 1.44841 19.1965 2.0007 19.1965L3.92708 19.1965C4.00593 19.1965 4.07084 19.1356 4.08206 19.0575C4.32666 17.3569 5.11452 15.7689 6.34374 14.5397Z" fill="#171717"/>
<path d="M19.9191 19.0575C19.9303 19.1356 19.9953 19.1965 20.0741 19.1965H22.0007C22.553 19.1965 23.0108 18.7444 22.901 18.2032C22.7072 17.2472 22.2362 16.361 21.5362 15.661C20.5986 14.7233 19.3268 14.1965 18.0007 14.1965C17.9253 14.1965 17.85 14.1982 17.775 14.2016C17.6038 14.2094 17.5363 14.4185 17.6574 14.5397C18.8867 15.7689 19.6745 17.3569 19.9191 19.0575Z" fill="#171717"/>
<path d="M16.0062 11.1896C15.7212 11.5703 15.6381 12.1053 15.991 12.4239C16.5229 12.9041 17.2277 13.1965 18.0007 13.1965C19.6576 13.1965 21.0007 11.8534 21.0007 10.1965C21.0007 8.53968 19.6576 7.19653 18.0007 7.19653C17.9067 7.19653 17.8137 7.20086 17.7219 7.20932C17.2529 7.25254 17.0006 7.72558 17.0006 8.19653C17.0006 9.31903 16.6307 10.3551 16.0062 11.1896Z" fill="#171717"/>
</svg>
