<svg width="16" height="15" viewBox="0 0 16 15" fill="none" xmlns="http://www.w3.org/2000/svg">
<path fill-rule="evenodd" clip-rule="evenodd" d="M4.176 0.313508C5.08436 0.0864266 6.04325 0.192608 6.87614 0.609034L7.21939 0.780651C7.63385 0.987871 7.99815 1.2711 8.29592 1.61066C8.33762 1.65821 8.41238 1.65821 8.45408 1.61066C8.75185 1.2711 9.11615 0.98787 9.53061 0.780651L9.87386 0.609034C10.7068 0.192608 11.6656 0.0864266 12.574 0.313508C13.447 0.531734 14.2089 1.04142 14.7377 1.7465L14.9303 2.00335C15.5456 2.8236 15.875 3.81643 15.875 4.83283V5.1197C15.875 5.57453 15.8192 6.02783 15.7088 6.46956L15.6416 6.73825C15.3889 7.74908 14.9362 8.70127 14.3082 9.53845L13.9169 10.0603C13.6022 10.4798 13.2579 10.8768 12.8865 11.2482L12.4896 11.6451C11.5371 12.5975 10.4359 13.3916 9.22736 13.9959C8.69219 14.2634 8.05781 14.2634 7.52264 13.9959C6.31414 13.3916 5.21286 12.5975 4.26044 11.6451L3.86349 11.2482C3.49209 10.8768 3.14781 10.4798 2.83314 10.0603L2.44175 9.53845C1.81384 8.70127 1.36111 7.74908 1.10839 6.73825L1.04121 6.46956C0.930775 6.02783 0.875 5.57453 0.875 5.1197V4.83283C0.875 3.81643 1.20444 2.8236 1.81965 2.00335L2.0123 1.7465C2.54113 1.04142 3.30305 0.531734 4.176 0.313508ZM6.29556 1.62058C5.73499 1.34031 5.09715 1.27122 4.4941 1.42198C3.91287 1.56728 3.39007 1.91057 3.01954 2.40459L2.82689 2.66144C2.36001 3.28392 2.10451 4.04584 2.10451 4.83283V5.1197C2.10451 5.48708 2.14957 5.85288 2.23856 6.20879L2.30573 6.47748C2.52355 7.34871 2.91285 8.16554 3.44899 8.88035L3.84037 9.40218C4.12239 9.77819 4.43051 10.1334 4.76231 10.4652L5.15926 10.8621C6.02173 11.7245 7.01605 12.4407 8.10322 12.9843C8.27572 13.0706 8.47428 13.0706 8.64678 12.9843C9.73395 12.4407 10.7283 11.7245 11.5907 10.8621L11.9877 10.4652C12.3195 10.1334 12.6276 9.77819 12.9096 9.40218L13.301 8.88035C13.8371 8.16554 14.2265 7.34871 14.4443 6.47748L14.5114 6.20879C14.6004 5.85288 14.6455 5.48708 14.6455 5.1197V4.83283C14.6455 4.04584 14.39 3.28392 13.9231 2.66144L13.7305 2.40459C13.3599 1.91057 12.8371 1.56728 12.2559 1.42198C11.6529 1.27122 11.015 1.34031 10.4544 1.62058L10.1112 1.7922C9.6673 2.01413 9.29922 2.37835 9.06978 2.83721C8.65999 3.65675 8.08738 3.65148 7.68022 2.83721C7.45078 2.37835 7.0827 2.01413 6.63881 1.7922L6.29556 1.62058Z" fill="#687684"/>
</svg>
