<svg width="20" height="19" viewBox="0 0 20 19" fill="none" xmlns="http://www.w3.org/2000/svg">
<path fill-rule="evenodd" clip-rule="evenodd" d="M2.70711 0.489426C2.31658 0.0989021 1.68342 0.0989021 1.29289 0.489426C0.902369 0.879951 0.902369 1.51312 1.29289 1.90364L3.28341 3.89416C3.50006 4.11081 3.47217 4.46908 3.23443 4.66233C2.08034 5.60044 1.08098 6.77214 0.28883 8.1173C-0.0962766 8.77125 -0.0962766 9.62181 0.28883 10.2758C2.39231 13.8477 5.9568 16.1965 10 16.1965C11.4869 16.1965 12.909 15.8789 14.2175 15.2996C14.412 15.2135 14.6405 15.2512 14.7909 15.4016L17.2929 17.9036C17.6834 18.2942 18.3166 18.2942 18.7071 17.9036C19.0976 17.5131 19.0976 16.88 18.7071 16.4894L2.70711 0.489426ZM11.4528 12.9245C11.7571 12.8059 11.807 12.4177 11.576 12.1867L10.7221 11.3328C10.5958 11.2065 10.4122 11.1621 10.2349 11.1829C10.1579 11.1919 10.0795 11.1965 10 11.1965C8.89543 11.1965 8 10.3011 8 9.19653C8 9.11706 8.00464 9.03868 8.01365 8.96163C8.0344 8.78429 7.98999 8.60073 7.86373 8.47448L7.00979 7.62054C6.7788 7.38955 6.39067 7.43943 6.27199 7.74378C6.09637 8.1941 6 8.68406 6 9.19653C6 11.4057 7.79086 13.1965 10 13.1965C10.5125 13.1965 11.0024 13.1002 11.4528 12.9245Z" fill="#777777"/>
<path d="M10.0849 5.06715C10.172 5.1543 10.2884 5.20488 10.411 5.2174C12.2919 5.4094 13.7871 6.90459 13.9791 8.78549C13.9917 8.90809 14.0422 9.02451 14.1294 9.11165L17.4436 12.4258C17.6405 12.6228 17.9612 12.6215 18.1476 12.4144C18.7307 11.7666 19.2553 11.0499 19.7112 10.2758C20.0963 9.62181 20.0963 8.77126 19.7112 8.1173C17.6077 4.54537 14.0432 2.19653 10 2.19653C9.45182 2.19653 8.91244 2.23971 8.38431 2.32326C7.99992 2.38407 7.86766 2.84993 8.14284 3.12511L10.0849 5.06715Z" fill="#777777"/>
</svg>
