<svg width="23" height="21" viewBox="0 0 23 21" fill="none" xmlns="http://www.w3.org/2000/svg">
<path fill-rule="evenodd" clip-rule="evenodd" d="M2.20444 6.47927L1.12223 7.09768C0.762594 7.30319 0.304453 7.17824 0.098946 6.8186C-0.106561 6.45896 0.0183861 6.00082 0.378024 5.79532L9.88575 0.362331C10.7312 -0.120777 11.7691 -0.120777 12.6145 0.362331L22.1222 5.79532C22.4819 6.00082 22.6068 6.45896 22.4013 6.8186C22.1958 7.17824 21.7377 7.30319 21.378 7.09768L20.2958 6.47927L18.8503 16.9589C18.5944 18.8144 17.0086 20.1965 15.1355 20.1965H7.36474C5.49167 20.1965 3.90584 18.8144 3.64991 16.9589L2.20444 6.47927ZM11.2502 13.4465C13.0452 13.4465 14.5002 11.9914 14.5002 10.1965C14.5002 8.40155 13.0452 6.94647 11.2502 6.94647C9.45532 6.94647 8.00024 8.40155 8.00024 10.1965C8.00024 11.9914 9.45532 13.4465 11.2502 13.4465Z" fill="black"/>
</svg>
