<svg width="19" height="19" viewBox="0 0 19 19" fill="none" xmlns="http://www.w3.org/2000/svg">
<path d="M6 7.1814C6.82843 7.1814 7.5 6.50982 7.5 5.6814C7.5 4.85297 6.82843 4.1814 6 4.1814C5.17157 4.1814 4.5 4.85297 4.5 5.6814C4.5 6.50982 5.17157 7.1814 6 7.1814Z" fill="#777777"/>
<path fill-rule="evenodd" clip-rule="evenodd" d="M18 2.1814V11.6207L18.0303 11.6511L18 11.6814V16.1814C18 17.286 17.1046 18.1814 16 18.1814H13L12.9697 18.2117L12.9393 18.1814H2C0.89543 18.1814 0 17.286 0 16.1814V2.1814C0 1.07683 0.895431 0.181396 2 0.181396H16C17.1046 0.181396 18 1.07683 18 2.1814ZM2 1.6814H16C16.2761 1.6814 16.5 1.90525 16.5 2.1814V10.1207L14.2012 7.82193C13.5431 7.16379 12.4849 7.13597 11.7931 7.75861L8.02718 11.1479L7.23744 10.3582C6.55402 9.67476 5.44598 9.67476 4.76256 10.3582L1.5 13.6207V2.1814C1.5 1.90525 1.72386 1.6814 2 1.6814ZM13.1405 8.8826L16.5 12.2421V16.1814C16.5 16.4575 16.2761 16.6814 16 16.6814H13.5607L9.08931 12.21L12.7965 8.87355C12.8954 8.7846 13.0465 8.78858 13.1405 8.8826ZM1.5 15.6814V16.1814C1.5 16.4575 1.72386 16.6814 2 16.6814H11.4393L6.17678 11.4188C6.07915 11.3212 5.92085 11.3212 5.82322 11.4188L1.53033 15.7117L1.5 15.6814Z" fill="#777777"/>
</svg>
