<svg width="24" height="25" viewBox="0 0 24 25" fill="none" xmlns="http://www.w3.org/2000/svg">
<path d="M9.94975 6.33269C10.3403 5.94216 10.9734 5.94216 11.364 6.33269C11.7545 6.72321 11.7545 7.35638 11.364 7.7469L7.75563 11.3552C7.62964 11.4812 7.71888 11.6966 7.89706 11.6966H19.0001C19.5524 11.6966 20.0001 12.1444 20.0001 12.6966C20.0001 13.2489 19.5524 13.6966 19.0001 13.6966H7.89706C7.71887 13.6966 7.62964 13.9121 7.75564 14.0381L11.364 17.6464C11.7545 18.0369 11.7545 18.6701 11.364 19.0606C10.9734 19.4511 10.3403 19.4511 9.94975 19.0606L4.29289 13.4038C3.90237 13.0132 3.90237 12.3801 4.29289 11.9895L9.94975 6.33269Z" fill="#171717"/>
</svg>
