<svg width="20" height="21" viewBox="0 0 20 21" fill="none" xmlns="http://www.w3.org/2000/svg">
<path d="M4.75 5.19653C4.33579 5.19653 4 5.53232 4 5.94653C4 6.36075 4.33579 6.69653 4.75 6.69653H15.25C15.6642 6.69653 16 6.36075 16 5.94653C16 5.53232 15.6642 5.19653 15.25 5.19653H4.75Z" fill="#687684"/>
<path d="M4 9.94653C4 9.53232 4.33579 9.19653 4.75 9.19653H15.25C15.6642 9.19653 16 9.53232 16 9.94653C16 10.3607 15.6642 10.6965 15.25 10.6965H4.75C4.33579 10.6965 4 10.3607 4 9.94653Z" fill="#687684"/>
<path d="M4.75 13.1965C4.33579 13.1965 4 13.5323 4 13.9465C4 14.3607 4.33579 14.6965 4.75 14.6965H10C10.4142 14.6965 10.75 14.3607 10.75 13.9465C10.75 13.5323 10.4142 13.1965 10 13.1965H4.75Z" fill="#687684"/>
<path fill-rule="evenodd" clip-rule="evenodd" d="M0 2.19653C0 1.09196 0.895431 0.196533 2 0.196533H18C19.1046 0.196533 20 1.09196 20 2.19653V18.1965C20 19.3011 19.1046 20.1965 18 20.1965H2C0.895431 20.1965 0 19.3011 0 18.1965V2.19653ZM2 1.69653H18C18.2761 1.69653 18.5 1.92039 18.5 2.19653V18.1965C18.5 18.4727 18.2761 18.6965 18 18.6965H2C1.72386 18.6965 1.5 18.4727 1.5 18.1965V2.19653C1.5 1.92039 1.72386 1.69653 2 1.69653Z" fill="#687684"/>
</svg>
