<svg width="19" height="25" viewBox="0 0 19 25" fill="none" xmlns="http://www.w3.org/2000/svg">
<path d="M9.50164 0.900773V0.900849L9.5133 0.900698C13.6665 0.846856 17.4209 3.91378 18.02 8.22707L18.02 8.22742C18.277 10.0728 17.8981 11.8529 17.1157 13.6316C16.2599 15.5772 15.0313 17.3111 13.6037 18.9697C12.3534 20.417 10.976 21.7462 9.49961 22.981C6.83731 20.7404 4.499 18.281 2.75756 15.3381C1.87545 13.8442 1.22554 12.3139 0.998573 10.6617L0.998115 10.6585C0.634179 8.07917 1.27856 5.80214 2.98712 3.82951L2.9883 3.82815C4.48328 2.09511 6.41296 1.14948 8.74482 0.903244L8.76822 0.900773H8.76915H8.7706H8.77206H8.77351H8.77497H8.77642H8.77788H8.77934H8.78079H8.78224H8.7837H8.78515H8.78661H8.78806H8.78951H8.79097H8.79242H8.79388H8.79533H8.79678H8.79823H8.79969H8.80114H8.80259H8.80404H8.8055H8.80695H8.8084H8.80985H8.8113H8.81275H8.81421H8.81566H8.81711H8.81856H8.82001H8.82146H8.82291H8.82436H8.82581H8.82726H8.82871H8.83016H8.83161H8.83306H8.83451H8.83596H8.83741H8.83885H8.8403H8.84175H8.8432H8.84465H8.8461H8.84754H8.84899H8.85044H8.85189H8.85333H8.85478H8.85623H8.85768H8.85912H8.86057H8.86202H8.86346H8.86491H8.86635H8.8678H8.86925H8.87069H8.87214H8.87358H8.87503H8.87648H8.87792H8.87936H8.88081H8.88226H8.8837H8.88515H8.88659H8.88803H8.88948H8.89092H8.89237H8.89381H8.89525H8.8967H8.89814H8.89959H8.90103H8.90247H8.90392H8.90536H8.9068H8.90824H8.90969H8.91113H8.91257H8.91401H8.91546H8.9169H8.91834H8.91978H8.92123H8.92267H8.92411H8.92555H8.92699H8.92843H8.92988H8.93132H8.93276H8.9342H8.93564H8.93708H8.93852H8.93996H8.9414H8.94284H8.94429H8.94573H8.94717H8.94861H8.95005H8.95149H8.95293H8.95437H8.95581H8.95725H8.95868H8.96012H8.96156H8.963H8.96444H8.96588H8.96732H8.96876H8.9702H8.97164H8.97308H8.97452H8.97596H8.97739H8.97883H8.98027H8.98171H8.98315H8.98459H8.98602H8.98746H8.9889H8.99034H8.99178H8.99321H8.99465H8.99609H8.99753H8.99896H9.0004H9.00184H9.00328H9.00471H9.00615H9.00759H9.00903H9.01046H9.0119H9.01334H9.01477H9.01621H9.01765H9.01908H9.02052H9.02196H9.02339H9.02483H9.02627H9.0277H9.02914H9.03058H9.03201H9.03345H9.03489H9.03632H9.03776H9.03919H9.04063H9.04207H9.0435H9.04494H9.04637H9.04781H9.04925H9.05068H9.05212H9.05355H9.05499H9.05643H9.05786H9.0593H9.06073H9.06217H9.0636H9.06504H9.06647H9.06791H9.06934H9.07078H9.07221H9.07365H9.07508H9.07652H9.07796H9.07939H9.08083H9.08226H9.0837H9.08513H9.08657H9.088H9.08944H9.09087H9.09231H9.09374H9.09518H9.09661H9.09805H9.09948H9.10091H9.10235H9.10378H9.10522H9.10665H9.10809H9.10952H9.11096H9.11239H9.11383H9.11526H9.1167H9.11813H9.11957H9.121H9.12244H9.12387H9.12531H9.12674H9.12817H9.12961H9.13104H9.13248H9.13391H9.13535H9.13678H9.13822H9.13965H9.14109H9.14252H9.14396H9.14539H9.14683H9.14826H9.14969H9.15113H9.15256H9.154H9.15543H9.15687H9.1583H9.15974H9.16117H9.16261H9.16404H9.16548H9.16691H9.16835H9.16978H9.17122H9.17265H9.17409H9.17552H9.17696H9.17839H9.17983H9.18126H9.1827H9.18413H9.18557H9.187H9.18844H9.18987H9.19131H9.19274H9.19418H9.19561H9.19705H9.19848H9.19992H9.20135H9.20279H9.20423H9.20566H9.2071H9.20853H9.20997H9.2114H9.21284H9.21428H9.21571H9.21715H9.21858H9.22002H9.22145H9.22289H9.22433H9.22576H9.2272H9.22863H9.23007H9.23151H9.23294H9.23438H9.23582H9.23725H9.23869H9.24013H9.24156H9.243H9.24444H9.24587H9.24731H9.24875H9.25018H9.25162H9.25306H9.25449H9.25593H9.25737H9.25881H9.26024H9.26168H9.26312H9.26455H9.26599H9.26743H9.26887H9.27031H9.27174H9.27318H9.27462H9.27606H9.2775H9.27893H9.28037H9.28181H9.28325H9.28469H9.28613H9.28756H9.289H9.29044H9.29188H9.29332H9.29476H9.2962H9.29764H9.29908H9.30051H9.30195H9.30339H9.30483H9.30627H9.30771H9.30915H9.31059H9.31203H9.31347H9.31491H9.31635H9.31779H9.31923H9.32067H9.32211H9.32355H9.32499H9.32644H9.32788H9.32932H9.33076H9.3322H9.33364H9.33508H9.33652H9.33796H9.33941H9.34085H9.34229H9.34373H9.34517H9.34661H9.34806H9.3495H9.35094H9.35238H9.35383H9.35527H9.35671H9.35816H9.3596H9.36104H9.36248H9.36393H9.36537H9.36682H9.36826H9.3697H9.37115H9.37259H9.37403H9.37548H9.37692H9.37837H9.37981H9.38126H9.3827H9.38415H9.38559H9.38704H9.38848H9.38993H9.39137H9.39282H9.39426H9.39571H9.39716H9.3986H9.40005H9.40149H9.40294H9.40439H9.40584H9.40728H9.40873H9.41018H9.41162H9.41307H9.41452H9.41597H9.41741H9.41886H9.42031H9.42176H9.42321H9.42465H9.4261H9.42755H9.429H9.43045H9.4319H9.43335H9.4348H9.43625H9.4377H9.43915H9.4406H9.44205H9.4435H9.44495H9.4464H9.44785H9.4493H9.45075H9.4522H9.45365H9.45511H9.45656H9.45801H9.45946H9.46091H9.46237H9.46382H9.46527H9.46672H9.46818H9.46963H9.47108H9.47254H9.47399H9.47544H9.4769H9.47835H9.4798H9.48126H9.48271H9.48417H9.48562H9.48708H9.48853H9.48999H9.49144H9.4929H9.49436H9.49581H9.49727H9.49872H9.50018H9.50164ZM9.21291 23.2181C9.21294 23.218 9.21469 23.2166 9.21809 23.2143C9.21459 23.217 9.21289 23.2182 9.21291 23.2181Z" stroke="#C6E6FB" stroke-width="1.8"/>
<circle cx="9.53902" cy="9.3525" r="3.40172" stroke="#C6E6FB" stroke-width="1.8"/>
</svg>
