<svg width="21" height="19" viewBox="0 0 21 19" fill="none" xmlns="http://www.w3.org/2000/svg">
<path fill-rule="evenodd" clip-rule="evenodd" d="M0.50293 2.09814C0.50293 0.993575 1.39836 0.0981445 2.50293 0.0981445H18.5029C19.6075 0.0981445 20.5029 0.993575 20.5029 2.09814V16.0981C20.5029 17.2027 19.6075 18.0981 18.5029 18.0981H2.50293C1.39836 18.0981 0.50293 17.2027 0.50293 16.0981V2.09814ZM2.50293 1.59814H18.5029C18.7791 1.59814 19.0029 1.822 19.0029 2.09814V3.03009L10.6416 8.60431C10.5576 8.66029 10.4482 8.66029 10.3643 8.60431L2.00293 3.03009V2.09814C2.00293 1.822 2.22679 1.59814 2.50293 1.59814ZM2.00293 4.83287V16.0981C2.00293 16.3743 2.22679 16.5981 2.50293 16.5981H18.5029C18.7791 16.5981 19.0029 16.3743 19.0029 16.0981V4.83287L11.4737 9.85238C10.8858 10.2443 10.12 10.2443 9.5322 9.85238L2.00293 4.83287Z" fill="#000000"/>
</svg>
