<svg width="18" height="19" viewBox="0 0 18 19" fill="none" xmlns="http://www.w3.org/2000/svg">
<path d="M17 9V11C17 12.8565 16.1571 14.637 14.6569 15.9497C13.1566 17.2625 11.1217 18 9 18C6.87827 18 4.84344 17.2625 3.34315 15.9497C1.84285 14.637 1 12.8565 1 11V9" stroke="black" stroke-width="1.8" stroke-linecap="round" stroke-linejoin="round"/>
<path d="M9 1C7.67392 1 6.40215 1.31607 5.46447 1.87868C4.52678 2.44129 4 3.20435 4 4V12C4 12.7956 4.52678 13.5587 5.46447 14.1213C6.40215 14.6839 7.67392 15 9 15C10.3261 15 11.5979 14.6839 12.5355 14.1213C13.4732 13.5587 14 12.7956 14 12V4C14 3.20435 13.4732 2.44129 12.5355 1.87868C11.5979 1.31607 10.3261 1 9 1V1Z" stroke="black" stroke-width="1.8" stroke-linecap="round" stroke-linejoin="round"/>
<path d="M11 10V7" stroke="black" stroke-linecap="round" stroke-linejoin="round"/>
<path d="M9 11V6" stroke="black" stroke-linecap="round" stroke-linejoin="round"/>
<path d="M7 10V7" stroke="black" stroke-linecap="round" stroke-linejoin="round"/>
</svg>
