<svg width="18" height="18" viewBox="0 0 18 18" fill="none" xmlns="http://www.w3.org/2000/svg">
<path fill-rule="evenodd" clip-rule="evenodd" d="M0.21967 0.666203C0.512563 0.37331 0.987437 0.37331 1.28033 0.666203L7.5 6.88587V3.19653C7.5 2.78232 7.83579 2.44653 8.25 2.44653C8.66421 2.44653 9 2.78232 9 3.19653V8.94653C9 9.22268 8.77614 9.44653 8.5 9.44653H2.75C2.33579 9.44653 2 9.11075 2 8.69653C2 8.28232 2.33579 7.94653 2.75 7.94653H6.43934L0.21967 1.72686C-0.0732233 1.43397 -0.0732233 0.959096 0.21967 0.666203ZM10.5 4.19653C10.5 3.78232 10.8358 3.44653 11.25 3.44653H14.75C16.2688 3.44653 17.5 4.67775 17.5 6.19653V15.1965C17.5 16.7153 16.2688 17.9465 14.75 17.9465H5.75C4.23122 17.9465 3 16.7153 3 15.1965V11.6965C3 11.2823 3.33579 10.9465 3.75 10.9465C4.16421 10.9465 4.5 11.2823 4.5 11.6965V15.1965C4.5 15.8869 5.05964 16.4465 5.75 16.4465H14.75C15.4404 16.4465 16 15.8869 16 15.1965V6.19653C16 5.50618 15.4404 4.94653 14.75 4.94653H11.25C10.8358 4.94653 10.5 4.61075 10.5 4.19653Z" fill="#536471"/>
</svg>
