<svg width="20" height="17" viewBox="0 0 20 17" fill="none" xmlns="http://www.w3.org/2000/svg">
<path fill-rule="evenodd" clip-rule="evenodd" d="M4.07859 0.207275H3.32859V1.70728H4.07859H18.4975V7.03892V13.1206V13.8706H19.9975V13.1206V7.03892V0.957275C19.9975 0.543062 19.6617 0.207275 19.2475 0.207275H4.07859ZM2.51392 2.79521H4.22116H4.2239H13.1514H13.1541H14.8614L16.6253 2.79522C17.0395 2.79523 17.3753 3.13101 17.3753 3.54522V6.52197V6.5221V12.4756V12.4758V15.4528C17.3753 15.6517 17.2963 15.8425 17.1556 15.9831C17.0149 16.1238 16.8241 16.2028 16.6252 16.2028L15.4027 16.2025L14.8614 16.2025H13.1539H13.1517H4.22361H4.22145H2.51392L1.97258 16.2025L0.750103 16.2028C0.551173 16.2028 0.360381 16.1238 0.219706 15.9831C0.0790318 15.8425 0 15.6517 0 15.4528V12.4758V12.4756V6.52211V6.52197V3.54528C0 3.34635 0.0790354 3.15556 0.219716 3.01491C0.360396 2.87425 0.551195 2.79525 0.750129 2.79528L1.72678 2.79529L2.51392 2.79521ZM4.92782 4.29521H12.4475C12.4693 4.46719 12.5019 4.65609 12.5513 4.85099C12.6981 5.43144 13.0147 6.15567 13.7179 6.64253C14.463 7.15842 15.2902 7.28146 15.8753 7.29759V11.7001C15.2902 11.7163 14.463 11.8393 13.7179 12.3552C13.0147 12.8421 12.6981 13.5663 12.5513 14.1467C12.5019 14.3416 12.4693 14.5305 12.4475 14.7025H4.92782C4.90605 14.5305 4.87336 14.3416 4.82405 14.1467C4.6772 13.5663 4.36063 12.8421 3.65744 12.3552C2.91232 11.8393 2.08514 11.7163 1.5 11.7001V7.29759C2.08514 7.28146 2.91232 7.15842 3.65744 6.64253C4.36063 6.15567 4.6772 5.43144 4.82405 4.85099C4.87336 4.65609 4.90605 4.46719 4.92782 4.29521ZM14.0054 4.48309C13.9894 4.41959 13.9759 4.35674 13.9645 4.29521H14.8614L15.8753 4.29522V5.79271C15.469 5.78527 15.0115 5.71376 14.5717 5.40927C14.2827 5.20917 14.1055 4.87851 14.0054 4.48309ZM14.5717 13.5885C15.0115 13.284 15.469 13.2124 15.8753 13.205V14.7026L15.4031 14.7025L14.8614 14.7025H13.9645C13.9759 14.641 13.9894 14.5781 14.0054 14.5146C14.1055 14.1192 14.2827 13.7886 14.5717 13.5885ZM3.36987 14.5146C3.38593 14.5781 3.39943 14.641 3.41078 14.7025H2.51392L1.97224 14.7025L1.5 14.7026V13.205C1.90626 13.2124 2.3638 13.284 2.80359 13.5885C3.09261 13.7886 3.26983 14.1192 3.36987 14.5146ZM2.80359 5.40927C2.3638 5.71376 1.90626 5.78527 1.5 5.79271V4.29533L1.72744 4.29529L2.51392 4.29521H3.41078C3.39943 4.35674 3.38593 4.41959 3.36987 4.48309C3.26983 4.87851 3.09261 5.20917 2.80359 5.40927ZM8.62974 12.6559C9.29775 12.6559 10.4441 11.7922 10.4441 9.68958C10.4441 7.58697 9.3055 6.70074 8.63749 6.70074C7.96948 6.70074 6.81543 7.58697 6.81543 9.68958C6.81543 11.7922 7.96173 12.6559 8.62974 12.6559Z" fill="#141619"/>
</svg>
