<svg width="25" height="25" viewBox="0 0 25 25" fill="none" xmlns="http://www.w3.org/2000/svg">
<path d="M20.09 9.49653C19.6816 9.49653 19.2899 9.33429 19.0011 9.04548C18.7123 8.75668 18.55 8.36496 18.55 7.95652M18.55 17.0165C18.5553 16.6116 18.7198 16.225 19.0081 15.9405C19.2963 15.656 19.685 15.4965 20.09 15.4965M6.05001 9.49653C6.45845 9.49653 6.85015 9.33429 7.13896 9.04548C7.42776 8.75668 7.59001 8.36496 7.59001 7.95652M7.59001 17.0165C7.58475 16.6116 7.42018 16.225 7.13194 15.9405C6.84371 15.656 6.455 15.4965 6.05001 15.4965M11.67 13.7865C11.66 14.0539 11.7303 14.3181 11.8718 14.5452C12.0133 14.7722 12.2195 14.9517 12.4639 15.0606C12.7083 15.1694 12.9797 15.2026 13.2431 15.1559C13.5066 15.1092 13.75 14.9846 13.942 14.7984C14.1341 14.6121 14.266 14.3726 14.3207 14.1107C14.3755 13.8488 14.3506 13.5766 14.2492 13.3289C14.1479 13.0813 13.9748 12.8697 13.7521 12.7214C13.5295 12.573 13.2675 12.4947 13 12.4965C12.735 12.4965 12.4759 12.4179 12.2555 12.2707C12.0352 12.1234 11.8634 11.9142 11.762 11.6693C11.6606 11.4245 11.6341 11.155 11.6858 10.8951C11.7375 10.6352 11.8651 10.3964 12.0525 10.209C12.2399 10.0216 12.4787 9.89396 12.7386 9.84225C12.9985 9.79055 13.268 9.8171 13.5128 9.91852C13.7577 10.0199 13.9669 10.1917 14.1142 10.412C14.2614 10.6324 14.34 10.8915 14.34 11.1565M13.04 9.06653V9.76653M13.04 15.1265V15.8265M22 7.94653V16.9465C22 18.0511 21.1046 18.9465 20 18.9465H6C4.89543 18.9465 4 18.0511 4 16.9465V7.94653C4 6.84196 4.89543 5.94653 6 5.94653H20C21.1046 5.94653 22 6.84196 22 7.94653Z" stroke="#1C1C1E" stroke-linecap="round" stroke-linejoin="round"/>
</svg>
