<svg width="22" height="23" viewBox="0 0 22 23" fill="none" xmlns="http://www.w3.org/2000/svg">
<path fill-rule="evenodd" clip-rule="evenodd" d="M7.5625 11.1965C7.5625 12.3356 6.98284 12.9153 5.84375 12.9153C4.70466 12.9153 4.125 12.3356 4.125 11.1965C4.125 10.0574 4.70466 9.47778 5.84375 9.47778C6.98284 9.47778 7.5625 10.0574 7.5625 11.1965ZM6.53125 11.1965C6.53125 11.7661 6.41329 11.884 5.84375 11.884C5.27421 11.884 5.15625 11.7661 5.15625 11.1965C5.15625 10.627 5.27421 10.509 5.84375 10.509C6.41329 10.509 6.53125 10.627 6.53125 11.1965Z" fill="black"/>
<path fill-rule="evenodd" clip-rule="evenodd" d="M11 12.9153C12.1391 12.9153 12.7188 12.3356 12.7188 11.1965C12.7188 10.0574 12.1391 9.47778 11 9.47778C9.86091 9.47778 9.28125 10.0574 9.28125 11.1965C9.28125 12.3356 9.86091 12.9153 11 12.9153ZM11 11.884C11.5695 11.884 11.6875 11.7661 11.6875 11.1965C11.6875 10.627 11.5695 10.509 11 10.509C10.4305 10.509 10.3125 10.627 10.3125 11.1965C10.3125 11.7661 10.4305 11.884 11 11.884Z" fill="black"/>
<path fill-rule="evenodd" clip-rule="evenodd" d="M17.875 11.1965C17.875 12.3356 17.2953 12.9153 16.1562 12.9153C15.0172 12.9153 14.4375 12.3356 14.4375 11.1965C14.4375 10.0574 15.0172 9.47778 16.1562 9.47778C17.2953 9.47778 17.875 10.0574 17.875 11.1965ZM16.8438 11.1965C16.8438 11.7661 16.7258 11.884 16.1562 11.884C15.5867 11.884 15.4688 11.7661 15.4688 11.1965C15.4688 10.627 15.5867 10.509 16.1562 10.509C16.7258 10.509 16.8438 10.627 16.8438 11.1965Z" fill="black"/>
<path fill-rule="evenodd" clip-rule="evenodd" d="M22 11.1965C22 17.2717 17.0751 22.1965 11 22.1965C4.92487 22.1965 0 17.2717 0 11.1965C0 5.1214 4.92487 0.196533 11 0.196533C17.0751 0.196533 22 5.1214 22 11.1965ZM20.9688 11.1965C20.9688 16.7021 16.5056 21.1653 11 21.1653C5.49441 21.1653 1.03125 16.7021 1.03125 11.1965C1.03125 5.69094 5.49441 1.22778 11 1.22778C16.5056 1.22778 20.9688 5.69094 20.9688 11.1965Z" fill="black"/>
</svg>
