<svg width="27" height="23" viewBox="0 0 27 23" fill="none" xmlns="http://www.w3.org/2000/svg">
<path d="M8.49123 22.6965C18.6804 22.6965 24.2525 14.2334 24.2525 6.89437C24.2525 6.65402 24.2476 6.41477 24.2368 6.17651C25.321 5.38997 26.2567 4.4161 27 3.30056C26.0074 3.74298 24.9393 4.04075 23.8188 4.17501C24.9625 3.48745 25.8405 2.39972 26.2548 1.10315C25.1674 1.74989 23.9778 2.20581 22.7372 2.45125C21.7264 1.37171 20.2873 0.696533 18.6937 0.696533C15.6346 0.696533 13.1539 3.18374 13.1539 6.24961C13.1539 6.68548 13.2026 7.10931 13.2976 7.51598C8.69362 7.28372 4.61113 5.07371 1.87891 1.71326C1.38682 2.56083 1.12798 3.52411 1.12884 4.50473C1.12884 6.4316 2.10677 8.13259 3.59396 9.12776C2.71427 9.10082 1.85389 8.86259 1.08516 8.43311C1.08434 8.45643 1.08434 8.47914 1.08434 8.50406C1.08434 11.1937 2.99376 13.4394 5.52847 13.9483C5.05242 14.0783 4.56118 14.144 4.06778 14.1437C3.71146 14.1437 3.36419 14.1086 3.02669 14.0436C3.73193 16.2503 5.7769 17.8561 8.20147 17.901C6.30549 19.3909 3.91714 20.2783 1.32135 20.2783C0.879777 20.2787 0.438562 20.253 0 20.2014C2.45162 21.7769 5.36268 22.6961 8.4915 22.6961" fill="black"/>
<path d="M21.7812 2.61084L22.84 3.14604" stroke="white" stroke-width="0.5" stroke-linecap="round"/>
<path d="M21.2636 3.61117C21.2453 3.84849 21.321 4.08345 21.474 4.26435C21.6271 4.44524 21.845 4.55726 22.0797 4.57576C22.3145 4.59426 22.5469 4.51772 22.7258 4.36299C22.9047 4.20825 23.0155 3.98799 23.0338 3.75067L22.1487 3.68092L21.2636 3.61117Z" fill="white"/>
</svg>
