<svg width="22" height="21" viewBox="0 0 22 21" fill="none" xmlns="http://www.w3.org/2000/svg">
<path fill-rule="evenodd" clip-rule="evenodd" d="M13.2988 1.41386C14.3727 0.339914 16.114 0.339912 17.1879 1.41385L20.3595 4.58543C21.4334 5.65937 21.4334 7.40057 20.3595 8.47451L8.83907 19.9949C8.67028 20.1637 8.44667 20.2665 8.20866 20.2849L1.51006 20.8001C1.20434 20.8236 0.949671 20.569 0.973188 20.2633L1.48847 13.5647C1.50677 13.3266 1.60962 13.103 1.77841 12.9342L13.2988 1.41386ZM16.1272 2.47451C15.6391 1.98636 14.8476 1.98636 14.3595 2.47452L2.97168 14.2068L7.47168 18.7068L19.2988 7.41385C19.787 6.9257 19.787 6.13424 19.2988 5.64609L16.1272 2.47451ZM7.47168 18.7068L2.97168 14.2068L2.60299 18.6335C2.57947 18.9392 2.83414 19.1938 3.13986 19.1703L7.47168 18.7068Z" fill="#536471"/>
<path d="M11 20L13.0486 18H19V20H11Z" fill="#536471"/>
</svg>
