<svg width="22" height="21" viewBox="0 0 22 21" fill="none" xmlns="http://www.w3.org/2000/svg">
<path fill-rule="evenodd" clip-rule="evenodd" d="M13.2988 0.90531C14.3727 -0.168631 16.114 -0.168633 17.1879 0.905309L20.3595 4.07688C21.4334 5.15082 21.4334 6.89203 20.3595 7.96597L8.83907 19.4864C8.67028 19.6552 8.44667 19.758 8.20866 19.7763L1.51006 20.2916C1.20434 20.3151 0.949671 20.0604 0.973188 19.7547L1.48847 13.0561C1.50677 12.8181 1.60962 12.5945 1.77841 12.4257L13.2988 0.90531ZM16.1272 1.96597C15.6391 1.47781 14.8476 1.47781 14.3595 1.96597L13.304 3.02143L18.2433 7.96077L19.2988 6.90531C19.787 6.41715 19.787 5.6257 19.2988 5.13754L16.1272 1.96597ZM17.1827 9.02143L12.2433 4.08209L4.01112 12.3143C3.62059 12.7048 3.62059 13.338 4.01112 13.7285L7.53624 17.2537C7.92677 17.6442 8.55993 17.6442 8.95046 17.2537L17.1827 9.02143ZM6.55996 18.3987L2.86607 14.7048L2.60299 18.1249C2.57947 18.4306 2.83414 18.6853 3.13986 18.6618L6.55996 18.3987Z" fill="#687684"/>
</svg>
