<svg width="24" height="23" viewBox="0 0 24 23" fill="none" xmlns="http://www.w3.org/2000/svg">
<path d="M11.5311 0.463788C11.6922 0.0284787 12.3078 0.028477 12.4689 0.463786L15.1613 7.73982C15.2119 7.87668 15.3198 7.98459 15.4567 8.03523L22.7327 10.7276C23.1681 10.8887 23.1681 11.5044 22.7327 11.6655L15.4567 14.3578C15.3199 14.4085 15.2119 14.5164 15.1613 14.6532L12.4689 21.9293C12.3078 22.3646 11.6922 22.3646 11.5311 21.9293L8.8387 14.6532C8.78806 14.5164 8.68015 14.4085 8.54329 14.3578L1.26725 11.6655C0.831946 11.5044 0.831944 10.8887 1.26725 10.7276L8.54329 8.03523C8.68015 7.98459 8.78806 7.87668 8.8387 7.73982L11.5311 0.463788Z" fill="#724DBD"/>
</svg>
