<svg width="18" height="14" viewBox="0 0 18 14" fill="none" xmlns="http://www.w3.org/2000/svg">
<path d="M3.47855 0.853722C3.28329 0.65846 2.96671 0.65846 2.77145 0.853722L0.183058 3.44211C-0.0610194 3.68619 -0.0610194 4.08192 0.183058 4.32599C0.427136 4.57007 0.822864 4.57007 1.06694 4.32599L2.5 2.89294V10.3841C2.5 12.1099 3.89911 13.5091 5.625 13.5091H9.625C9.97018 13.5091 10.25 13.2292 10.25 12.8841C10.25 12.5389 9.97018 12.2591 9.625 12.2591H5.625C4.58947 12.2591 3.75 11.4196 3.75 10.3841V2.89294L5.18306 4.32599C5.42714 4.57007 5.82286 4.57007 6.06694 4.32599C6.31102 4.08192 6.31102 3.68619 6.06694 3.44211L3.47855 0.853722Z" fill="#000000"/>
<path d="M14.3964 13.5393C14.5917 13.7346 14.9083 13.7346 15.1036 13.5393L17.6919 10.951C17.936 10.7069 17.936 10.3111 17.6919 10.0671C17.4479 9.82299 17.0521 9.82299 16.8081 10.0671L15.375 11.5001V4.00901C15.375 2.28312 13.9759 0.884014 12.25 0.884014H8.25C7.90482 0.884014 7.625 1.16384 7.625 1.50901C7.625 1.85419 7.90482 2.13401 8.25 2.13401H12.25C13.2855 2.13401 14.125 2.97348 14.125 4.00901V11.5001L12.6919 10.0671C12.4479 9.82299 12.0521 9.82299 11.8081 10.0671C11.564 10.3111 11.564 10.7069 11.8081 10.951L14.3964 13.5393Z" fill="#000000"/>
</svg>
