<svg width="21" height="20" viewBox="0 0 21 20" fill="none" xmlns="http://www.w3.org/2000/svg">
<path fill-rule="evenodd" clip-rule="evenodd" d="M15.3116 16.0954C13.7436 17.4228 11.7153 18.2231 9.5 18.2231C4.52944 18.2231 0.5 14.1937 0.5 9.22314C0.5 4.25258 4.52944 0.223145 9.5 0.223145C14.4706 0.223145 18.5 4.25258 18.5 9.22314C18.5 11.4384 17.6996 13.4668 16.3723 15.0348L20.0303 18.6928C20.3232 18.9857 20.3232 19.4606 20.0303 19.7535C19.7374 20.0464 19.2626 20.0464 18.9697 19.7535L15.3116 16.0954ZM17 9.22314C17 13.3653 13.6421 16.7231 9.5 16.7231C5.35786 16.7231 2 13.3653 2 9.22314C2 5.08101 5.35786 1.72314 9.5 1.72314C13.6421 1.72314 17 5.08101 17 9.22314Z" fill="#000000"/>
</svg>
