<svg width="24" height="25" viewBox="0 0 24 25" fill="none" xmlns="http://www.w3.org/2000/svg">
<g clip-path="url(#clip0_715_3316)">
<path d="M12 15.1965C13.6569 15.1965 15 13.8534 15 12.1965C15 10.5397 13.6569 9.19653 12 9.19653C10.3431 9.19653 9 10.5397 9 12.1965C9 13.8534 10.3431 15.1965 12 15.1965Z" stroke="#777777" stroke-width="1.5" stroke-linecap="round" stroke-linejoin="round"/>
<path d="M19.4 15.1965C19.2669 15.4981 19.2272 15.8327 19.286 16.1571C19.3448 16.4815 19.4995 16.7809 19.73 17.0165L19.79 17.0765C19.976 17.2623 20.1235 17.4829 20.2241 17.7257C20.3248 17.9684 20.3766 18.2287 20.3766 18.4915C20.3766 18.7544 20.3248 19.0146 20.2241 19.2574C20.1235 19.5002 19.976 19.7208 19.79 19.9065C19.6043 20.0925 19.3837 20.24 19.1409 20.3407C18.8981 20.4413 18.6378 20.4931 18.375 20.4931C18.1122 20.4931 17.8519 20.4413 17.6091 20.3407C17.3663 20.24 17.1457 20.0925 16.96 19.9065L16.9 19.8465C16.6643 19.616 16.365 19.4613 16.0406 19.4025C15.7162 19.3437 15.3816 19.3834 15.08 19.5165C14.7842 19.6433 14.532 19.8538 14.3543 20.1221C14.1766 20.3904 14.0813 20.7047 14.08 21.0265V21.1965C14.08 21.727 13.8693 22.2357 13.4942 22.6107C13.1191 22.9858 12.6104 23.1965 12.08 23.1965C11.5496 23.1965 11.0409 22.9858 10.6658 22.6107C10.2907 22.2357 10.08 21.727 10.08 21.1965V21.1065C10.0723 20.7755 9.96512 20.4545 9.77251 20.1852C9.5799 19.9159 9.31074 19.7108 9 19.5965C8.69838 19.4634 8.36381 19.4237 8.03941 19.4825C7.71502 19.5413 7.41568 19.696 7.18 19.9265L7.12 19.9865C6.93425 20.1725 6.71368 20.32 6.47088 20.4207C6.22808 20.5213 5.96783 20.5731 5.705 20.5731C5.44217 20.5731 5.18192 20.5213 4.93912 20.4207C4.69632 20.32 4.47575 20.1725 4.29 19.9865C4.10405 19.8008 3.95653 19.5802 3.85588 19.3374C3.75523 19.0946 3.70343 18.8344 3.70343 18.5715C3.70343 18.3087 3.75523 18.0484 3.85588 17.8057C3.95653 17.5629 4.10405 17.3423 4.29 17.1565L4.35 17.0965C4.58054 16.8609 4.73519 16.5615 4.794 16.2371C4.85282 15.9127 4.81312 15.5781 4.68 15.2765C4.55324 14.9808 4.34276 14.7285 4.07447 14.5508C3.80618 14.3732 3.49179 14.2778 3.17 14.2765H3C2.46957 14.2765 1.96086 14.0658 1.58579 13.6907C1.21071 13.3157 1 12.807 1 12.2765C1 11.7461 1.21071 11.2374 1.58579 10.8623C1.96086 10.4872 2.46957 10.2765 3 10.2765H3.09C3.42099 10.2688 3.742 10.1617 4.0113 9.96904C4.28059 9.77644 4.48572 9.50727 4.6 9.19653C4.73312 8.89492 4.77282 8.56034 4.714 8.23594C4.65519 7.91155 4.50054 7.61221 4.27 7.37653L4.21 7.31653C4.02405 7.13079 3.87653 6.91021 3.77588 6.66741C3.67523 6.42462 3.62343 6.16436 3.62343 5.90153C3.62343 5.6387 3.67523 5.37845 3.77588 5.13565C3.87653 4.89286 4.02405 4.67228 4.21 4.48653C4.39575 4.30058 4.61632 4.15306 4.85912 4.05241C5.10192 3.95177 5.36217 3.89996 5.625 3.89996C5.88783 3.89996 6.14808 3.95177 6.39088 4.05241C6.63368 4.15306 6.85425 4.30058 7.04 4.48653L7.1 4.54653C7.33568 4.77707 7.63502 4.93172 7.95941 4.99054C8.28381 5.04936 8.61838 5.00965 8.92 4.87653H9C9.29577 4.74977 9.54802 4.53929 9.72569 4.271C9.90337 4.00271 9.99872 3.68832 10 3.36653V3.19653C10 2.6661 10.2107 2.15739 10.5858 1.78232C10.9609 1.40725 11.4696 1.19653 12 1.19653C12.5304 1.19653 13.0391 1.40725 13.4142 1.78232C13.7893 2.15739 14 2.6661 14 3.19653V3.28653C14.0013 3.60832 14.0966 3.92271 14.2743 4.191C14.452 4.45929 14.7042 4.66977 15 4.79653C15.3016 4.92965 15.6362 4.96936 15.9606 4.91054C16.285 4.85172 16.5843 4.69707 16.82 4.46653L16.88 4.40653C17.0657 4.22058 17.2863 4.07306 17.5291 3.97241C17.7719 3.87177 18.0322 3.81996 18.295 3.81996C18.5578 3.81996 18.8181 3.87177 19.0609 3.97241C19.3037 4.07306 19.5243 4.22058 19.71 4.40653C19.896 4.59228 20.0435 4.81286 20.1441 5.05565C20.2448 5.29845 20.2966 5.5587 20.2966 5.82153C20.2966 6.08436 20.2448 6.34462 20.1441 6.58741C20.0435 6.83021 19.896 7.05079 19.71 7.23653L19.65 7.29653C19.4195 7.53221 19.2648 7.83155 19.206 8.15594C19.1472 8.48034 19.1869 8.81492 19.32 9.11653V9.19653C19.4468 9.4923 19.6572 9.74455 19.9255 9.92223C20.1938 10.0999 20.5082 10.1952 20.83 10.1965H21C21.5304 10.1965 22.0391 10.4072 22.4142 10.7823C22.7893 11.1574 23 11.6661 23 12.1965C23 12.727 22.7893 13.2357 22.4142 13.6107C22.0391 13.9858 21.5304 14.1965 21 14.1965H20.91C20.5882 14.1978 20.2738 14.2932 20.0055 14.4708C19.7372 14.6485 19.5268 14.9008 19.4 15.1965V15.1965Z" stroke="#777777" stroke-width="1.5" stroke-linecap="round" stroke-linejoin="round"/>
</g>
<defs>
<clipPath id="clip0_715_3316">
<rect width="24" height="24" fill="white" transform="translate(0 0.196533)"/>
</clipPath>
</defs>
</svg>
