<svg width="17" height="16" viewBox="0 0 17 16" fill="none" xmlns="http://www.w3.org/2000/svg">
<path fill-rule="evenodd" clip-rule="evenodd" d="M8.14645 0.942101C8.34171 0.746839 8.65829 0.746839 8.85355 0.942101L12.4419 4.53049C12.686 4.77457 12.686 5.1703 12.4419 5.41437C12.1979 5.65845 11.8021 5.65845 11.5581 5.41437L9.125 2.98131V10.4724C9.125 10.8176 8.84518 11.0974 8.5 11.0974C8.15482 11.0974 7.875 10.8176 7.875 10.4724V2.98131L5.44194 5.41437C5.19786 5.65845 4.80214 5.65845 4.55806 5.41437C4.31398 5.1703 4.31398 4.77457 4.55806 4.53049L8.14645 0.942101ZM1.5 8.84743C1.84518 8.84743 2.125 9.12725 2.125 9.47243V13.4724C2.125 13.9557 2.51675 14.3474 3 14.3474H14C14.4832 14.3474 14.875 13.9557 14.875 13.4724V9.47243C14.875 9.12725 15.1548 8.84743 15.5 8.84743C15.8452 8.84743 16.125 9.12725 16.125 9.47243V13.4724C16.125 14.646 15.1736 15.5974 14 15.5974H3C1.8264 15.5974 0.875 14.646 0.875 13.4724V9.47243C0.875 9.12725 1.15482 8.84743 1.5 8.84743Z" fill="#536471"/>
</svg>
