<svg width="20" height="20" viewBox="0 0 20 20" fill="none" xmlns="http://www.w3.org/2000/svg">
<path fill-rule="evenodd" clip-rule="evenodd" d="M17.0764 8.74076C17.0764 10.5241 17.5533 12.275 18.4577 13.8121L19.433 15.4696C19.6291 15.8029 19.3888 16.2231 19.0021 16.2231H14.3135C14.2573 16.5559 14.1637 16.882 14.0339 17.1952C13.8078 17.7412 13.4763 18.2373 13.0584 18.6551C12.6406 19.073 12.1445 19.4045 11.5985 19.6306C11.0526 19.8567 10.4674 19.9731 9.87646 19.9731C9.28552 19.9731 8.70035 19.8567 8.15439 19.6306C7.60842 19.4045 7.11235 19.073 6.69448 18.6551C6.27662 18.2373 5.94515 17.7412 5.71901 17.1952C5.58926 16.882 5.49565 16.5559 5.4394 16.2231H0.750759C0.364023 16.2231 0.123699 15.8029 0.319824 15.4696L1.29512 13.8121C2.19952 12.275 2.67642 10.5241 2.67642 8.74076V6.84383C2.67642 3.18733 5.89997 0.223145 9.87642 0.223145C13.8529 0.223145 17.0764 3.18733 17.0764 6.84383V8.74076ZM6.97173 16.2231C7.00667 16.3585 7.0511 16.4915 7.10483 16.6212C7.25559 16.9852 7.47657 17.3159 7.75514 17.5945C8.03372 17.873 8.36444 18.094 8.72841 18.2448C9.09239 18.3955 9.4825 18.4731 9.87646 18.4731C10.2704 18.4731 10.6605 18.3955 11.0245 18.2448C11.3885 18.094 11.7192 17.873 11.9978 17.5945C12.2764 17.3159 12.4973 16.9852 12.6481 16.6212C12.7018 16.4915 12.7463 16.3585 12.7812 16.2231H6.97173Z" fill="black"/>
</svg>
