<svg
  xmlns="http://www.w3.org/2000/svg"
  width="60"
  height="60"
  viewBox="0 0 183.818 183.818"
>
  <path d="M0,0H183.818V183.818H0Z" fill="none" />
  <circle
    cx="23"
    cy="23"
    r="23"
    fill="#fff"
    transform="translate(69 69)"
  />
  <path
    fill="#fff"
    d="M139.864,17.318H115.584l-9.5-10.34A15.246,15.246,0,0,0,94.828,2H62.354A15.541,15.541,0,0,0,51.018,6.978L41.6,17.318H17.318A15.363,15.363,0,0,0,2,32.636v91.909a15.363,15.363,0,0,0,15.318,15.318H139.864a15.363,15.363,0,0,0,15.318-15.318V32.636A15.363,15.363,0,0,0,139.864,17.318ZM78.591,116.886a38.3,38.3,0,1,1,38.3-38.3A38.309,38.309,0,0,1,78.591,116.886Z"
    transform="translate(13.318 13.318)"
  />
</svg>