<svg width="16" height="15" viewBox="0 0 16 15" fill="none" xmlns="http://www.w3.org/2000/svg">
<path d="M4.176 0.714387C5.08436 0.487306 6.04325 0.593487 6.87614 1.00991L7.21939 1.18153C7.63385 1.38875 7.99815 1.67198 8.29592 2.01154C8.33762 2.05909 8.41238 2.05909 8.45408 2.01154C8.75185 1.67198 9.11615 1.38875 9.53061 1.18153L9.87386 1.00991C10.7068 0.593487 11.6656 0.487305 12.574 0.714387C13.447 0.932613 14.2089 1.4423 14.7377 2.14738L14.9303 2.40423C15.5456 3.22448 15.875 4.21731 15.875 5.23371V5.52058C15.875 5.97541 15.8192 6.42871 15.7088 6.87044L15.6416 7.13913C15.3889 8.14996 14.9362 9.10215 14.3082 9.93933L13.9169 10.4611C13.6022 10.8807 13.2579 11.2777 12.8865 11.6491L12.4896 12.046C11.5371 12.9984 10.4359 13.7925 9.22736 14.3967C8.69219 14.6643 8.05781 14.6643 7.52264 14.3967C6.31414 13.7925 5.21286 12.9984 4.26044 12.046L3.86349 11.6491C3.49209 11.2777 3.14781 10.8807 2.83314 10.4611L2.44175 9.93933C1.81384 9.10215 1.36111 8.14996 1.10839 7.13913L1.04121 6.87044C0.930775 6.42871 0.875 5.97541 0.875 5.52058V5.23371C0.875 4.21731 1.20444 3.22448 1.81965 2.40423L2.0123 2.14738C2.54113 1.4423 3.30305 0.932613 4.176 0.714387Z" fill="#F91880"/>
</svg>
