<svg width="25" height="25" viewBox="0 0 25 25" fill="none" xmlns="http://www.w3.org/2000/svg">
<path d="M12.25 12.9465C12.6642 12.9465 13 12.6107 13 12.1965C13 11.7823 12.6642 11.4465 12.25 11.4465C11.8358 11.4465 11.5 11.7823 11.5 12.1965C11.5 12.6107 11.8358 12.9465 12.25 12.9465Z" stroke="#777777" stroke-width="1.5" stroke-linecap="round" stroke-linejoin="round"/>
<path d="M19.25 12.9465C19.6642 12.9465 20 12.6107 20 12.1965C20 11.7823 19.6642 11.4465 19.25 11.4465C18.8358 11.4465 18.5 11.7823 18.5 12.1965C18.5 12.6107 18.8358 12.9465 19.25 12.9465Z" stroke="#777777" stroke-width="1.5" stroke-linecap="round" stroke-linejoin="round"/>
<path d="M5.25 12.9465C5.66421 12.9465 6 12.6107 6 12.1965C6 11.7823 5.66421 11.4465 5.25 11.4465C4.83579 11.4465 4.5 11.7823 4.5 12.1965C4.5 12.6107 4.83579 12.9465 5.25 12.9465Z" stroke="#777777" stroke-width="1.5" stroke-linecap="round" stroke-linejoin="round"/>
</svg>
