<svg width="24" height="25" viewBox="0 0 24 25" fill="none" xmlns="http://www.w3.org/2000/svg">
<path d="M16 21.2051V19.2051C16 18.1442 15.5786 17.1268 14.8284 16.3767C14.0783 15.6265 13.0609 15.2051 12 15.2051H5C3.93913 15.2051 2.92172 15.6265 2.17157 16.3767C1.42143 17.1268 1 18.1442 1 19.2051V21.2051" stroke="black" stroke-width="1.5" stroke-linecap="round" stroke-linejoin="round"/>
<path d="M8.5 11.2051C10.7091 11.2051 12.5 9.41422 12.5 7.20508C12.5 4.99594 10.7091 3.20508 8.5 3.20508C6.29086 3.20508 4.5 4.99594 4.5 7.20508C4.5 9.41422 6.29086 11.2051 8.5 11.2051Z" stroke="black" stroke-width="1.5" stroke-linecap="round" stroke-linejoin="round"/>
<path d="M20 8.20508V14.2051" stroke="black" stroke-width="1.5" stroke-linecap="round" stroke-linejoin="round"/>
<path d="M23 11.2051H17" stroke="black" stroke-width="1.5" stroke-linecap="round" stroke-linejoin="round"/>
</svg>
