<svg width="15" height="16" viewBox="0 0 15 16" fill="none" xmlns="http://www.w3.org/2000/svg">
<path d="M1.28775 5.62338C1.14951 4.65593 1.45242 3.63747 2.19674 2.89314C2.94094 2.14895 3.95939 1.84604 4.92684 1.98429C5.51317 1.20243 6.44754 0.696533 7.5 0.696533C8.55246 0.696533 9.48682 1.20243 10.0732 1.98429C11.0406 1.84604 12.0591 2.14895 12.8033 2.89314C13.5476 3.63747 13.8505 4.65593 13.7122 5.62338C14.4941 6.20971 15 7.14407 15 8.19653C15 9.249 14.4941 10.1834 13.7122 10.7697C13.8505 11.7371 13.5476 12.7555 12.8033 13.4998C12.0591 14.2441 11.0406 14.547 10.0732 14.4088C9.48682 15.1906 8.55246 15.6965 7.5 15.6965C6.44754 15.6965 5.51317 15.1906 4.92684 14.4088C3.95939 14.547 2.94094 14.2441 2.19674 13.4998C1.45242 12.7555 1.14951 11.7371 1.28775 10.7697C0.505894 10.1834 0 9.249 0 8.19653C0 7.14407 0.505894 6.20971 1.28775 5.62338Z" fill="#4C9EEB"/>
<path d="M4.85742 8.72368L6.43722 10.2668C6.54657 10.3736 6.72532 10.3582 6.81471 10.2342L10.0212 5.78589" stroke="white" stroke-width="1.5" stroke-linecap="round"/>
</svg>
