<svg width="18" height="17" viewBox="0 0 18 17" fill="none" xmlns="http://www.w3.org/2000/svg">
<path fill-rule="evenodd" clip-rule="evenodd" d="M6.2002 4C6.2002 5.38071 5.08091 6.5 3.7002 6.5C2.31948 6.5 1.2002 5.38071 1.2002 4C1.2002 2.61929 2.31948 1.5 3.7002 1.5C5.08091 1.5 6.2002 2.61929 6.2002 4ZM7.2002 4C7.2002 5.933 5.63319 7.5 3.7002 7.5C1.7672 7.5 0.200195 5.933 0.200195 4C0.200195 2.067 1.7672 0.5 3.7002 0.5C5.63319 0.5 7.2002 2.067 7.2002 4ZM18 4.9H9V3.1H18V4.9ZM18 13.9H9V12.1H18V13.9ZM4.3 4.0498C4.3 4.46402 3.96421 4.7998 3.55 4.7998C3.13579 4.7998 2.8 4.46402 2.8 4.0498C2.8 3.63559 3.13579 3.2998 3.55 3.2998C3.96421 3.2998 4.3 3.63559 4.3 4.0498ZM6.2002 13.5C6.2002 14.8807 5.08091 16 3.7002 16C2.31948 16 1.2002 14.8807 1.2002 13.5C1.2002 12.1193 2.31948 11 3.7002 11C5.08091 11 6.2002 12.1193 6.2002 13.5ZM7.2002 13.5C7.2002 15.433 5.63319 17 3.7002 17C1.7672 17 0.200195 15.433 0.200195 13.5C0.200195 11.567 1.7672 10 3.7002 10C5.63319 10 7.2002 11.567 7.2002 13.5Z" fill="#1D9BF0"/>
</svg>
